#define iotlogo_width 128
#define iotlogo_height 28
static unsigned char iotlogo_bits[] = {
   0x00, 0x00, 0x00, 0x00, 0x00, 0x00, 0x00, 0x00, 0x00, 0x00, 0x00, 0x00,
   0x00, 0x00, 0x00, 0x00, 0x00, 0x00, 0xe0, 0x00, 0x00, 0x00, 0x00, 0x00,
   0x00, 0x00, 0x00, 0x00, 0x00, 0x00, 0x00, 0x00, 0x00, 0x00, 0xf0, 0x01,
   0x00, 0x00, 0x00, 0x00, 0x00, 0x00, 0x00, 0x00, 0x00, 0x00, 0x00, 0x00,
   0x00, 0x00, 0xf0, 0x01, 0x00, 0x00, 0x00, 0x00, 0x00, 0x00, 0x00, 0x00,
   0x00, 0x00, 0x00, 0x00, 0x00, 0x00, 0xf0, 0x01, 0x00, 0x00, 0x00, 0x00,
   0x00, 0x00, 0x00, 0x00, 0x00, 0x00, 0x00, 0x00, 0x0c, 0x00, 0xf0, 0x01,
   0xf0, 0xff, 0x0f, 0x00, 0x00, 0x00, 0x00, 0x00, 0x00, 0x00, 0x00, 0x00,
   0x1e, 0xc0, 0xf1, 0x71, 0xf8, 0xff, 0x1f, 0x00, 0x00, 0x00, 0x00, 0x00,
   0x00, 0x00, 0x00, 0x00, 0x1e, 0xe0, 0xf3, 0xf9, 0xf8, 0xff, 0x1f, 0x00,
   0x00, 0x00, 0x00, 0x00, 0x00, 0x00, 0x00, 0x00, 0x1e, 0xe0, 0xf3, 0xf9,
   0xf1, 0xff, 0x0f, 0x00, 0x00, 0x00, 0x00, 0x00, 0x00, 0x00, 0x00, 0x00,
   0x1e, 0xf0, 0xf3, 0xf9, 0x01, 0x3c, 0x00, 0x00, 0x00, 0x00, 0x00, 0x00,
   0x00, 0x00, 0x00, 0x00, 0x1e, 0xf8, 0xf1, 0xf1, 0x03, 0x3c, 0x00, 0x00,
   0x00, 0x00, 0x00, 0x00, 0x00, 0x00, 0x00, 0x00, 0x1e, 0xf8, 0xf1, 0xf1,
   0x03, 0x3c, 0x80, 0x03, 0x00, 0x00, 0x06, 0x00, 0x30, 0x00, 0x00, 0x00,
   0x1e, 0xf8, 0xf0, 0xe1, 0x03, 0x3c, 0x80, 0x03, 0x00, 0x00, 0x06, 0x00,
   0x30, 0x00, 0x00, 0x00, 0x1e, 0xf8, 0xf0, 0xe1, 0x03, 0x3c, 0x00, 0x02,
   0x00, 0x00, 0x04, 0x00, 0x00, 0x00, 0x00, 0x00, 0x1e, 0x7c, 0xf0, 0xc1,
   0x07, 0x3c, 0x00, 0x02, 0x00, 0x00, 0xc4, 0x00, 0x38, 0x00, 0x00, 0x00,
   0x1e, 0x7c, 0xe0, 0xc0, 0x07, 0x3c, 0x00, 0x02, 0x7e, 0xf0, 0xc7, 0x1f,
   0x38, 0xf0, 0xc1, 0x0f, 0x1e, 0x7c, 0x00, 0xc0, 0x07, 0x3c, 0x00, 0x02,
   0x83, 0x18, 0x84, 0x20, 0x20, 0x08, 0x62, 0x10, 0x1e, 0x7c, 0x00, 0xc0,
   0x07, 0x3c, 0x00, 0x02, 0xff, 0x08, 0x84, 0x20, 0x20, 0x08, 0xe0, 0x1f,
   0x1e, 0xf8, 0x00, 0xe0, 0x03, 0x3c, 0x00, 0x02, 0xff, 0x08, 0x84, 0x20,
   0x20, 0x08, 0xe0, 0x1f, 0x1e, 0xf8, 0x00, 0xe0, 0x03, 0x3c, 0x00, 0x02,
   0x01, 0x18, 0x84, 0x20, 0x20, 0x08, 0x22, 0x00, 0x1e, 0xf8, 0x01, 0xf0,
   0x03, 0x3c, 0xc0, 0x1f, 0xfe, 0xf0, 0xcf, 0x71, 0xfc, 0xf1, 0xc1, 0x1f,
   0x1e, 0xf0, 0x03, 0xf8, 0x01, 0x3c, 0x00, 0x00, 0x00, 0x00, 0x00, 0x00,
   0x00, 0x00, 0x00, 0x00, 0x1e, 0xf0, 0x0f, 0xfe, 0x01, 0x3c, 0x00, 0x00,
   0x00, 0x00, 0x00, 0x00, 0x00, 0x00, 0x00, 0x00, 0x1e, 0xe0, 0xff, 0xff,
   0x00, 0x3c, 0x00, 0x00, 0x00, 0x00, 0x00, 0x00, 0x00, 0x00, 0x00, 0x00,
   0x1e, 0xc0, 0xff, 0x7f, 0x00, 0x3c, 0x00, 0x00, 0x00, 0x00, 0x00, 0x00,
   0x00, 0x00, 0x00, 0x00, 0x1e, 0x00, 0xff, 0x1f, 0x00, 0x3c, 0x00, 0x00,
   0x00, 0x00, 0x00, 0x00, 0x00, 0x00, 0x00, 0x00, 0x0c, 0x00, 0xfc, 0x07,
   0x00, 0x18, 0x00, 0x00, 0x00, 0x00, 0x00, 0x00, 0x00, 0x00, 0x00, 0x00,
   0x00, 0x00, 0x00, 0x00, 0x00, 0x00, 0x00, 0x00, 0x00, 0x00, 0x00, 0x00,
   0x00, 0x00, 0x00, 0x00 };
